<?xml version="1.0" encoding="UTF-8" standalone="no"?>
<!-- Created with Inkscape (http://www.inkscape.org/) -->

<svg
   width="6.2187266mm"
   height="5.5974503mm"
   viewBox="0 0 6.2187267 5.5974503"
   version="1.1"
   id="svg1"
   xml:space="preserve"
   inkscape:version="1.4.2 (ebf0e940, 2025-05-08)"
   sodipodi:docname="oshw-logo-filled-white-small.svg"
   xmlns:inkscape="http://www.inkscape.org/namespaces/inkscape"
   xmlns:sodipodi="http://sodipodi.sourceforge.net/DTD/sodipodi-0.dtd"
   xmlns="http://www.w3.org/2000/svg"
   xmlns:svg="http://www.w3.org/2000/svg"><sodipodi:namedview
     id="namedview1"
     pagecolor="#ffffff"
     bordercolor="#666666"
     borderopacity="1.0"
     inkscape:showpageshadow="2"
     inkscape:pageopacity="0.0"
     inkscape:pagecheckerboard="true"
     inkscape:deskcolor="#d1d1d1"
     inkscape:document-units="mm"
     inkscape:zoom="40.678242"
     inkscape:cx="15.094064"
     inkscape:cy="22.960678"
     inkscape:window-width="3008"
     inkscape:window-height="1639"
     inkscape:window-x="1512"
     inkscape:window-y="25"
     inkscape:window-maximized="1"
     inkscape:current-layer="layer1"
     showgrid="false" /><defs
     id="defs1"><style
       id="style1">.cls-1{fill-rule:evenodd;}.cls-1,.cls-2{fill:#fff;}</style></defs><g
     inkscape:label="Layer 1"
     inkscape:groupmode="layer"
     id="layer1"
     transform="translate(-15.966294,-50.341844)"><path
       class="cls-2"
       d="m 22.150733,53.017426 -0.763521,-0.141938 c -0.01863,-0.0034 -0.03897,-0.02091 -0.04514,-0.03886 L 21.10802,52.29059 c -0.0087,-0.01691 -0.0071,-0.04331 0.0038,-0.05908 l 0.444901,-0.648438 c 0.01063,-0.01566 0.0086,-0.03931 -0.0049,-0.0528 L 20.99618,50.974631 c -0.01337,-0.01337 -0.03714,-0.01566 -0.05268,-0.0049 l -0.659753,0.452787 c -0.01566,0.01074 -0.0424,0.01269 -0.05931,0.0042 l -0.529242,-0.21668 c -0.01794,-0.0059 -0.03554,-0.02606 -0.03897,-0.04468 L 19.50921,50.375674 c -0.0034,-0.01863 -0.02183,-0.03383 -0.04068,-0.03383 h -0.78592 c -0.01886,0 -0.03726,0.0152 -0.04068,0.03383 l -0.146967,0.789692 c -0.0035,0.01863 -0.02103,0.03874 -0.03897,0.04468 l -0.529356,0.21668 c -0.01703,0.0083 -0.04377,0.0064 -0.05931,-0.0042 l -0.659752,-0.452787 c -0.01566,-0.01074 -0.03943,-0.0086 -0.0528,0.0049 l -0.555641,0.555641 c -0.01337,0.01337 -0.01566,0.03714 -0.0049,0.0528 l 0.444902,0.648438 c 0.01063,0.01566 0.01234,0.04217 0.0037,0.05908 l -0.234051,0.546042 c -0.0062,0.01794 -0.02651,0.03543 -0.04514,0.03886 l -0.763521,0.141938 c -0.01863,0.0035 -0.03383,0.02183 -0.03383,0.0408 v 0.785806 c 0,0.01897 0.01531,0.03737 0.03394,0.0408 l 0.744779,0.138624 c 0.01863,0.0034 0.03851,0.02114 0.04423,0.0392 l 0.232565,0.580783 c 0.0083,0.01703 0.0064,0.04366 -0.0045,0.05931 L 16.594234,55.3192 c -0.01063,0.01566 -0.0085,0.03943 0.0049,0.0528 l 0.555755,0.555641 c 0.01337,0.01337 0.03714,0.01554 0.0528,0.0049 l 0.605583,-0.415645 c 0.01566,-0.01063 0.04171,-0.01154 0.05806,-0.0019 l 0.267078,0.142624 c 0.01691,0.0087 0.03669,0.0014 0.04388,-0.01611 l 0.550612,-1.33059 c 0.0073,-0.01749 0,-0.03988 -0.01611,-0.04971 l -0.06685,-0.04091 c -0.01234,-0.0075 -0.02914,-0.02046 -0.04228,-0.03234 -0.241136,-0.154396 -0.401017,-0.424445 -0.401017,-0.731979 0,-0.479986 0.389131,-0.869004 0.869003,-0.869004 0.479872,0 0.869003,0.389132 0.869003,0.869004 0,0.307534 -0.159881,0.577697 -0.401016,0.731979 -0.01303,0.01188 -0.02983,0.0248 -0.04217,0.03234 l -0.06686,0.04091 c -0.01611,0.0099 -0.02343,0.03223 -0.01611,0.04971 l 0.550613,1.33059 c 0.0072,0.01749 0.02697,0.0248 0.04388,0.01611 l 0.267078,-0.142624 c 0.01634,-0.0095 0.0424,-0.0087 0.05806,0.0019 l 0.605582,0.415645 c 0.01566,0.01063 0.03943,0.0085 0.05268,-0.0049 L 21.552144,55.372 c 0.01337,-0.01337 0.01566,-0.03726 0.0049,-0.0528 L 21.13397,54.702761 c -0.01063,-0.01566 -0.01269,-0.04228 -0.0043,-0.05931 l 0.232564,-0.580783 c 0.0057,-0.01806 0.02548,-0.03577 0.04423,-0.0392 L 22.15119,53.88483 c 0.01863,-0.0034 0.03383,-0.02183 0.03383,-0.0408 v -0.785806 c 1.14e-4,-0.01897 -0.01509,-0.03726 -0.03371,-0.0408"
       id="path1"
       style="stroke-width:0.264584" /></g></svg>
